<?xml version="1.0" encoding="UTF-8" standalone="no"?>
<!DOCTYPE svg PUBLIC "-//W3C//DTD SVG 1.1//EN"
 "http://www.w3.org/Graphics/SVG/1.1/DTD/svg11.dtd">
<!-- Generated by graphviz version 2.40.1 (20161225.0304)
 -->
<!-- Title: dependencies Pages: 1 -->
<svg width="504pt" height="284pt"
 viewBox="0.00 0.00 504.00 284.00" xmlns="http://www.w3.org/2000/svg" xmlns:xlink="http://www.w3.org/1999/xlink">
<g id="graph0" class="graph" transform="scale(1 1) rotate(0) translate(4 280)">
<title>dependencies</title>
<polygon fill="#ffffff" stroke="transparent" points="-4,4 -4,-280 500,-280 500,4 -4,4"/>
<text text-anchor="start" x="227.0091" y="-42.4" font-family="sans-serif" font-weight="bold" font-size="14.00" fill="#000000">Legend</text>
<polygon fill="#ffffb3" stroke="transparent" points="14,-10 14,-30 34,-30 34,-10 14,-10"/>
<text text-anchor="start" x="37.629" y="-15.4" font-family="sans-serif" font-size="14.00" fill="#000000"> &#160;Declarations</text>
<polygon fill="#8dd3c7" stroke="transparent" points="127,-10 127,-30 147,-30 147,-10 127,-10"/>
<text text-anchor="start" x="150.7251" y="-15.4" font-family="sans-serif" font-size="14.00" fill="#000000"> &#160;Module</text>
<polygon fill="#80b1d3" stroke="transparent" points="213,-10 213,-30 233,-30 233,-10 213,-10"/>
<text text-anchor="start" x="236.7812" y="-15.4" font-family="sans-serif" font-size="14.00" fill="#000000"> &#160;Bootstrap</text>
<polygon fill="#fdb462" stroke="transparent" points="310,-10 310,-30 330,-30 330,-10 310,-10"/>
<text text-anchor="start" x="333.6732" y="-15.4" font-family="sans-serif" font-size="14.00" fill="#000000"> &#160;Providers</text>
<polygon fill="#fb8072" stroke="transparent" points="406,-10 406,-30 426,-30 426,-10 406,-10"/>
<text text-anchor="start" x="429.7258" y="-15.4" font-family="sans-serif" font-size="14.00" fill="#000000"> &#160;Exports</text>
<g id="clust1" class="cluster">
<title>cluster_SharedModule</title>
<polygon fill="none" stroke="#000000" stroke-dasharray="1,5" points="44,-70 44,-268 452,-268 452,-70 44,-70"/>
</g>
<g id="clust2" class="cluster">
<title>cluster_SharedModule_declarations</title>
<polygon fill="none" stroke="#000000" points="182,-78 182,-130 444,-130 444,-78 182,-78"/>
</g>
<g id="clust5" class="cluster">
<title>cluster_SharedModule_imports</title>
<polygon fill="none" stroke="#000000" points="52,-78 52,-130 174,-130 174,-78 52,-78"/>
</g>
<g id="clust6" class="cluster">
<title>cluster_SharedModule_exports</title>
<polygon fill="none" stroke="#000000" points="114,-208 114,-260 383,-260 383,-208 114,-208"/>
</g>
<!-- JokesComponent -->
<g id="node1" class="node">
<title>JokesComponent</title>
<polygon fill="#ffffb3" stroke="#000000" points="436.437,-122 323.563,-122 323.563,-86 436.437,-86 436.437,-122"/>
<text text-anchor="middle" x="380" y="-99.8" font-family="Times,serif" font-size="14.00" fill="#000000">JokesComponent</text>
</g>
<!-- SharedModule -->
<g id="node3" class="node">
<title>SharedModule</title>
<polygon fill="#8dd3c7" stroke="#000000" points="297.4231,-187 294.4231,-191 273.4231,-191 270.4231,-187 198.5769,-187 198.5769,-151 297.4231,-151 297.4231,-187"/>
<text text-anchor="middle" x="248" y="-164.8" font-family="Times,serif" font-size="14.00" fill="#000000">SharedModule</text>
</g>
<!-- JokesComponent&#45;&gt;SharedModule -->
<g id="edge1" class="edge">
<title>JokesComponent&#45;&gt;SharedModule</title>
<path fill="none" stroke="#000000" d="M349.375,-122.1061C349.375,-141.3391 349.375,-169 349.375,-169 349.375,-169 307.4996,-169 307.4996,-169"/>
<polygon fill="#000000" stroke="#000000" points="307.4996,-165.5001 297.4996,-169 307.4996,-172.5001 307.4996,-165.5001"/>
</g>
<!-- TimerComponent -->
<g id="node2" class="node">
<title>TimerComponent</title>
<polygon fill="#ffffb3" stroke="#000000" points="305.5423,-122 190.4577,-122 190.4577,-86 305.5423,-86 305.5423,-122"/>
<text text-anchor="middle" x="248" y="-99.8" font-family="Times,serif" font-size="14.00" fill="#000000">TimerComponent</text>
</g>
<!-- TimerComponent&#45;&gt;SharedModule -->
<g id="edge2" class="edge">
<title>TimerComponent&#45;&gt;SharedModule</title>
<path fill="none" stroke="#000000" d="M248,-122.1061C248,-122.1061 248,-140.991 248,-140.991"/>
<polygon fill="#000000" stroke="#000000" points="244.5001,-140.9909 248,-150.991 251.5001,-140.991 244.5001,-140.9909"/>
</g>
<!-- JokesComponent  -->
<g id="node5" class="node">
<title>JokesComponent </title>
<polygon fill="#fb8072" stroke="#000000" points="374.9362,-252 259.0638,-252 259.0638,-216 374.9362,-216 374.9362,-252"/>
<text text-anchor="middle" x="317" y="-229.8" font-family="Times,serif" font-size="14.00" fill="#000000">JokesComponent </text>
</g>
<!-- SharedModule&#45;&gt;JokesComponent  -->
<g id="edge4" class="edge">
<title>SharedModule&#45;&gt;JokesComponent </title>
<path fill="none" stroke="#000000" stroke-dasharray="5,2" d="M278.1215,-187.1061C278.1215,-187.1061 278.1215,-205.991 278.1215,-205.991"/>
<polygon fill="#000000" stroke="#000000" points="274.6216,-205.9909 278.1215,-215.991 281.6216,-205.991 274.6216,-205.9909"/>
</g>
<!-- TimerComponent  -->
<g id="node6" class="node">
<title>TimerComponent </title>
<polygon fill="#fb8072" stroke="#000000" points="241.5414,-252 122.4586,-252 122.4586,-216 241.5414,-216 241.5414,-252"/>
<text text-anchor="middle" x="182" y="-229.8" font-family="Times,serif" font-size="14.00" fill="#000000">TimerComponent </text>
</g>
<!-- SharedModule&#45;&gt;TimerComponent  -->
<g id="edge5" class="edge">
<title>SharedModule&#45;&gt;TimerComponent </title>
<path fill="none" stroke="#000000" stroke-dasharray="5,2" d="M220.1548,-187.1061C220.1548,-187.1061 220.1548,-205.991 220.1548,-205.991"/>
<polygon fill="#000000" stroke="#000000" points="216.6549,-205.9909 220.1548,-215.991 223.6549,-205.991 216.6549,-205.9909"/>
</g>
<!-- MaterialModule -->
<g id="node4" class="node">
<title>MaterialModule</title>
<polygon fill="#8dd3c7" stroke="#000000" points="166.4706,-122 163.4706,-126 142.4706,-126 139.4706,-122 59.5294,-122 59.5294,-86 166.4706,-86 166.4706,-122"/>
<text text-anchor="middle" x="113" y="-99.8" font-family="Times,serif" font-size="14.00" fill="#000000">MaterialModule</text>
</g>
<!-- MaterialModule&#45;&gt;SharedModule -->
<g id="edge3" class="edge">
<title>MaterialModule&#45;&gt;SharedModule</title>
<path fill="none" stroke="#000000" d="M144.4823,-122.1061C144.4823,-141.3391 144.4823,-169 144.4823,-169 144.4823,-169 188.6666,-169 188.6666,-169"/>
<polygon fill="#000000" stroke="#000000" points="188.6666,-172.5001 198.6666,-169 188.6665,-165.5001 188.6666,-172.5001"/>
</g>
</g>
</svg>
