<?xml version="1.0" encoding="UTF-8" standalone="no"?>
<!DOCTYPE svg PUBLIC "-//W3C//DTD SVG 1.1//EN"
 "http://www.w3.org/Graphics/SVG/1.1/DTD/svg11.dtd">
<!-- Generated by graphviz version 2.40.1 (20161225.0304)
 -->
<!-- Title: dependencies Pages: 1 -->
<svg width="504pt" height="211pt"
 viewBox="0.00 0.00 504.00 211.00" xmlns="http://www.w3.org/2000/svg" xmlns:xlink="http://www.w3.org/1999/xlink">
<g id="graph0" class="graph" transform="scale(1 1) rotate(0) translate(4 207)">
<title>dependencies</title>
<polygon fill="#ffffff" stroke="transparent" points="-4,4 -4,-207 500,-207 500,4 -4,4"/>
<text text-anchor="start" x="227.0091" y="-42.4" font-family="sans-serif" font-weight="bold" font-size="14.00" fill="#000000">Legend</text>
<polygon fill="#ffffb3" stroke="transparent" points="14,-10 14,-30 34,-30 34,-10 14,-10"/>
<text text-anchor="start" x="37.629" y="-15.4" font-family="sans-serif" font-size="14.00" fill="#000000"> &#160;Declarations</text>
<polygon fill="#8dd3c7" stroke="transparent" points="127,-10 127,-30 147,-30 147,-10 127,-10"/>
<text text-anchor="start" x="150.7251" y="-15.4" font-family="sans-serif" font-size="14.00" fill="#000000"> &#160;Module</text>
<polygon fill="#80b1d3" stroke="transparent" points="213,-10 213,-30 233,-30 233,-10 213,-10"/>
<text text-anchor="start" x="236.7812" y="-15.4" font-family="sans-serif" font-size="14.00" fill="#000000"> &#160;Bootstrap</text>
<polygon fill="#fdb462" stroke="transparent" points="310,-10 310,-30 330,-30 330,-10 310,-10"/>
<text text-anchor="start" x="333.6732" y="-15.4" font-family="sans-serif" font-size="14.00" fill="#000000"> &#160;Providers</text>
<polygon fill="#fb8072" stroke="transparent" points="406,-10 406,-30 426,-30 426,-10 406,-10"/>
<text text-anchor="start" x="429.7258" y="-15.4" font-family="sans-serif" font-size="14.00" fill="#000000"> &#160;Exports</text>
<g id="clust1" class="cluster">
<title>cluster_ProtectedModule</title>
<polygon fill="none" stroke="#000000" stroke-dasharray="1,5" points="21.5,-70 21.5,-195 474.5,-195 474.5,-70 21.5,-70"/>
</g>
<g id="clust2" class="cluster">
<title>cluster_ProtectedModule_declarations</title>
<polygon fill="none" stroke="#000000" points="276.5,-78 276.5,-130 466.5,-130 466.5,-78 276.5,-78"/>
</g>
<g id="clust4" class="cluster">
<title>cluster_ProtectedModule_imports</title>
<polygon fill="none" stroke="#000000" points="29.5,-78 29.5,-130 268.5,-130 268.5,-78 29.5,-78"/>
</g>
<!-- ProtectedLayoutComponent -->
<g id="node1" class="node">
<title>ProtectedLayoutComponent</title>
<polygon fill="#ffffb3" stroke="#000000" points="458.3585,-122 284.6415,-122 284.6415,-86 458.3585,-86 458.3585,-122"/>
<text text-anchor="middle" x="371.5" y="-99.8" font-family="Times,serif" font-size="14.00" fill="#000000">ProtectedLayoutComponent</text>
</g>
<!-- ProtectedModule -->
<g id="node2" class="node">
<title>ProtectedModule</title>
<polygon fill="#8dd3c7" stroke="#000000" points="263.9188,-187 260.9188,-191 239.9188,-191 236.9188,-187 151.0812,-187 151.0812,-151 263.9188,-151 263.9188,-187"/>
<text text-anchor="middle" x="207.5" y="-164.8" font-family="Times,serif" font-size="14.00" fill="#000000">ProtectedModule</text>
</g>
<!-- ProtectedLayoutComponent&#45;&gt;ProtectedModule -->
<g id="edge1" class="edge">
<title>ProtectedLayoutComponent&#45;&gt;ProtectedModule</title>
<path fill="none" stroke="#000000" d="M371.5,-122.1061C371.5,-141.3391 371.5,-169 371.5,-169 371.5,-169 273.9395,-169 273.9395,-169"/>
<polygon fill="#000000" stroke="#000000" points="273.9395,-165.5001 263.9395,-169 273.9395,-172.5001 273.9395,-165.5001"/>
</g>
<!-- MaterialModule -->
<g id="node3" class="node">
<title>MaterialModule</title>
<polygon fill="#8dd3c7" stroke="#000000" points="260.9706,-122 257.9706,-126 236.9706,-126 233.9706,-122 154.0294,-122 154.0294,-86 260.9706,-86 260.9706,-122"/>
<text text-anchor="middle" x="207.5" y="-99.8" font-family="Times,serif" font-size="14.00" fill="#000000">MaterialModule</text>
</g>
<!-- MaterialModule&#45;&gt;ProtectedModule -->
<g id="edge2" class="edge">
<title>MaterialModule&#45;&gt;ProtectedModule</title>
<path fill="none" stroke="#000000" d="M207.5,-122.1061C207.5,-122.1061 207.5,-140.991 207.5,-140.991"/>
<polygon fill="#000000" stroke="#000000" points="204.0001,-140.9909 207.5,-150.991 211.0001,-140.991 204.0001,-140.9909"/>
</g>
<!-- SharedModule -->
<g id="node4" class="node">
<title>SharedModule</title>
<polygon fill="#8dd3c7" stroke="#000000" points="135.9231,-122 132.9231,-126 111.9231,-126 108.9231,-122 37.0769,-122 37.0769,-86 135.9231,-86 135.9231,-122"/>
<text text-anchor="middle" x="86.5" y="-99.8" font-family="Times,serif" font-size="14.00" fill="#000000">SharedModule</text>
</g>
<!-- SharedModule&#45;&gt;ProtectedModule -->
<g id="edge3" class="edge">
<title>SharedModule&#45;&gt;ProtectedModule</title>
<path fill="none" stroke="#000000" d="M86.5,-122.1061C86.5,-141.3391 86.5,-169 86.5,-169 86.5,-169 141.2508,-169 141.2508,-169"/>
<polygon fill="#000000" stroke="#000000" points="141.2508,-172.5001 151.2508,-169 141.2508,-165.5001 141.2508,-172.5001"/>
</g>
</g>
</svg>
