<?xml version="1.0" encoding="UTF-8" standalone="no"?>
<!DOCTYPE svg PUBLIC "-//W3C//DTD SVG 1.1//EN"
 "http://www.w3.org/Graphics/SVG/1.1/DTD/svg11.dtd">
<!-- Generated by graphviz version 2.40.1 (20161225.0304)
 -->
<!-- Title: dependencies Pages: 1 -->
<svg width="1885pt" height="355pt"
 viewBox="0.00 0.00 1885.00 355.00" xmlns="http://www.w3.org/2000/svg" xmlns:xlink="http://www.w3.org/1999/xlink">
<g id="graph0" class="graph" transform="scale(1 1) rotate(0) translate(4 351)">
<title>dependencies</title>
<polygon fill="#ffffff" stroke="transparent" points="-4,4 -4,-351 1881,-351 1881,4 -4,4"/>
<text text-anchor="start" x="917.5091" y="-42.4" font-family="sans-serif" font-weight="bold" font-size="14.00" fill="#000000">Legend</text>
<polygon fill="#ffffb3" stroke="transparent" points="704.5,-10 704.5,-30 724.5,-30 724.5,-10 704.5,-10"/>
<text text-anchor="start" x="728.129" y="-15.4" font-family="sans-serif" font-size="14.00" fill="#000000"> &#160;Declarations</text>
<polygon fill="#8dd3c7" stroke="transparent" points="817.5,-10 817.5,-30 837.5,-30 837.5,-10 817.5,-10"/>
<text text-anchor="start" x="841.2251" y="-15.4" font-family="sans-serif" font-size="14.00" fill="#000000"> &#160;Module</text>
<polygon fill="#80b1d3" stroke="transparent" points="903.5,-10 903.5,-30 923.5,-30 923.5,-10 903.5,-10"/>
<text text-anchor="start" x="927.2812" y="-15.4" font-family="sans-serif" font-size="14.00" fill="#000000"> &#160;Bootstrap</text>
<polygon fill="#fdb462" stroke="transparent" points="1000.5,-10 1000.5,-30 1020.5,-30 1020.5,-10 1000.5,-10"/>
<text text-anchor="start" x="1024.1732" y="-15.4" font-family="sans-serif" font-size="14.00" fill="#000000"> &#160;Providers</text>
<polygon fill="#fb8072" stroke="transparent" points="1096.5,-10 1096.5,-30 1116.5,-30 1116.5,-10 1096.5,-10"/>
<text text-anchor="start" x="1120.2258" y="-15.4" font-family="sans-serif" font-size="14.00" fill="#000000"> &#160;Exports</text>
<g id="clust1" class="cluster">
<title>cluster_AppModule</title>
<polygon fill="none" stroke="#000000" stroke-dasharray="1,5" points="238,-70 238,-339 977,-339 977,-70 238,-70"/>
</g>
<g id="clust2" class="cluster">
<title>cluster_AppModule_declarations</title>
<polygon fill="none" stroke="#000000" points="246,-143 246,-195 692,-195 692,-143 246,-143"/>
</g>
<g id="clust6" class="cluster">
<title>cluster_AppModule_imports</title>
<polygon fill="none" stroke="#000000" points="700,-78 700,-195 969,-195 969,-78 700,-78"/>
</g>
<g id="clust8" class="cluster">
<title>cluster_AppModule_bootstrap</title>
<polygon fill="none" stroke="#000000" points="622,-279 622,-331 746,-331 746,-279 622,-279"/>
</g>
<g id="clust22" class="cluster">
<title>cluster_ProtectedModule</title>
<polygon fill="none" stroke="#000000" stroke-dasharray="1,5" points="8,-135 8,-263 214,-263 214,-135 8,-135"/>
</g>
<g id="clust23" class="cluster">
<title>cluster_ProtectedModule_declarations</title>
<polygon fill="none" stroke="#000000" points="16,-143 16,-195 206,-195 206,-143 16,-143"/>
</g>
<g id="clust29" class="cluster">
<title>cluster_PublicModule</title>
<polygon fill="none" stroke="#000000" stroke-dasharray="1,5" points="1548,-135 1548,-263 1869,-263 1869,-135 1548,-135"/>
</g>
<g id="clust30" class="cluster">
<title>cluster_PublicModule_declarations</title>
<polygon fill="none" stroke="#000000" points="1556,-143 1556,-195 1861,-195 1861,-143 1556,-143"/>
</g>
<g id="clust37" class="cluster">
<title>cluster_SharedModule</title>
<polygon fill="none" stroke="#000000" stroke-dasharray="1,5" points="985,-203 985,-271 1540,-271 1540,-203 985,-203"/>
</g>
<g id="clust38" class="cluster">
<title>cluster_SharedModule_declarations</title>
<polygon fill="none" stroke="#000000" points="1270,-211 1270,-263 1532,-263 1532,-211 1270,-211"/>
</g>
<g id="clust42" class="cluster">
<title>cluster_SharedModule_exports</title>
<polygon fill="none" stroke="#000000" points="993,-211 993,-263 1262,-263 1262,-211 993,-211"/>
</g>
<!-- AppComponent -->
<g id="node1" class="node">
<title>AppComponent</title>
<polygon fill="#ffffb3" stroke="#000000" points="683.9399,-187 578.0601,-187 578.0601,-151 683.9399,-151 683.9399,-187"/>
<text text-anchor="middle" x="631" y="-164.8" font-family="Times,serif" font-size="14.00" fill="#000000">AppComponent</text>
</g>
<!-- AppModule -->
<g id="node4" class="node">
<title>AppModule</title>
<polygon fill="#8dd3c7" stroke="#000000" points="725.6571,-255 722.6571,-259 701.6571,-259 698.6571,-255 642.3429,-255 642.3429,-219 725.6571,-219 725.6571,-255"/>
<text text-anchor="middle" x="684" y="-232.8" font-family="Times,serif" font-size="14.00" fill="#000000">AppModule</text>
</g>
<!-- AppComponent&#45;&gt;AppModule -->
<g id="edge1" class="edge">
<title>AppComponent&#45;&gt;AppModule</title>
<path fill="none" stroke="#000000" d="M662.9457,-187.2228C662.9457,-187.2228 662.9457,-208.7269 662.9457,-208.7269"/>
<polygon fill="#000000" stroke="#000000" points="659.4457,-208.7269 662.9457,-218.7269 666.4457,-208.727 659.4457,-208.7269"/>
</g>
<!-- HeaderComponent -->
<g id="node2" class="node">
<title>HeaderComponent</title>
<polygon fill="#ffffb3" stroke="#000000" points="559.7437,-187 438.2563,-187 438.2563,-151 559.7437,-151 559.7437,-187"/>
<text text-anchor="middle" x="499" y="-164.8" font-family="Times,serif" font-size="14.00" fill="#000000">HeaderComponent</text>
</g>
<!-- HeaderComponent&#45;&gt;AppModule -->
<g id="edge2" class="edge">
<title>HeaderComponent&#45;&gt;AppModule</title>
<path fill="none" stroke="#000000" d="M499,-187.2667C499,-205.5552 499,-231 499,-231 499,-231 632.0206,-231 632.0206,-231"/>
<polygon fill="#000000" stroke="#000000" points="632.0207,-234.5001 642.0206,-231 632.0206,-227.5001 632.0207,-234.5001"/>
</g>
<!-- PageNotFoundComponent -->
<g id="node3" class="node">
<title>PageNotFoundComponent</title>
<polygon fill="#ffffb3" stroke="#000000" points="419.8243,-187 254.1757,-187 254.1757,-151 419.8243,-151 419.8243,-187"/>
<text text-anchor="middle" x="337" y="-164.8" font-family="Times,serif" font-size="14.00" fill="#000000">PageNotFoundComponent</text>
</g>
<!-- PageNotFoundComponent&#45;&gt;AppModule -->
<g id="edge3" class="edge">
<title>PageNotFoundComponent&#45;&gt;AppModule</title>
<path fill="none" stroke="#000000" d="M337,-187.2921C337,-209.2057 337,-243 337,-243 337,-243 632.1437,-243 632.1437,-243"/>
<polygon fill="#000000" stroke="#000000" points="632.1437,-246.5001 642.1437,-243 632.1437,-239.5001 632.1437,-246.5001"/>
</g>
<!-- AppComponent  -->
<g id="node8" class="node">
<title>AppComponent </title>
<polygon fill="#80b1d3" stroke="#000000" points="738.439,-323 629.561,-323 629.561,-287 738.439,-287 738.439,-323"/>
<text text-anchor="middle" x="684" y="-300.8" font-family="Times,serif" font-size="14.00" fill="#000000">AppComponent </text>
</g>
<!-- AppModule&#45;&gt;AppComponent  -->
<g id="edge7" class="edge">
<title>AppModule&#45;&gt;AppComponent </title>
<path fill="none" stroke="#000000" stroke-dasharray="1,5" d="M684,-255.2228C684,-255.2228 684,-276.7269 684,-276.7269"/>
<polygon fill="#000000" stroke="#000000" points="680.5001,-276.7269 684,-286.7269 687.5001,-276.727 680.5001,-276.7269"/>
</g>
<!-- AppRoutingModule -->
<g id="node5" class="node">
<title>AppRoutingModule</title>
<polygon fill="#8dd3c7" stroke="#000000" points="836.2744,-122 833.2744,-126 812.2744,-126 809.2744,-122 707.7256,-122 707.7256,-86 836.2744,-86 836.2744,-122"/>
<text text-anchor="middle" x="772" y="-99.8" font-family="Times,serif" font-size="14.00" fill="#000000">AppRoutingModule</text>
</g>
<!-- AppRoutingModule&#45;&gt;AppModule -->
<g id="edge4" class="edge">
<title>AppRoutingModule&#45;&gt;AppModule</title>
<path fill="none" stroke="#000000" d="M713.6847,-122.2142C713.6847,-122.2142 713.6847,-208.579 713.6847,-208.579"/>
<polygon fill="#000000" stroke="#000000" points="710.1848,-208.5789 713.6847,-218.579 717.1848,-208.579 710.1848,-208.5789"/>
</g>
<!-- MaterialModule -->
<g id="node6" class="node">
<title>MaterialModule</title>
<polygon fill="#8dd3c7" stroke="#000000" points="961.4706,-122 958.4706,-126 937.4706,-126 934.4706,-122 854.5294,-122 854.5294,-86 961.4706,-86 961.4706,-122"/>
<text text-anchor="middle" x="908" y="-99.8" font-family="Times,serif" font-size="14.00" fill="#000000">MaterialModule</text>
</g>
<!-- MaterialModule&#45;&gt;AppModule -->
<g id="edge5" class="edge">
<title>MaterialModule&#45;&gt;AppModule</title>
<path fill="none" stroke="#000000" d="M860.0308,-122.196C860.0308,-157.3126 860.0308,-231 860.0308,-231 860.0308,-231 735.7169,-231 735.7169,-231"/>
<polygon fill="#000000" stroke="#000000" points="735.7169,-227.5001 725.7169,-231 735.7168,-234.5001 735.7169,-227.5001"/>
</g>
<!-- SharedModule -->
<g id="node7" class="node">
<title>SharedModule</title>
<polygon fill="#8dd3c7" stroke="#000000" points="961.4231,-187 958.4231,-191 937.4231,-191 934.4231,-187 862.5769,-187 862.5769,-151 961.4231,-151 961.4231,-187"/>
<text text-anchor="middle" x="912" y="-164.8" font-family="Times,serif" font-size="14.00" fill="#000000">SharedModule</text>
</g>
<!-- MaterialModule&#45;&gt;SharedModule -->
<g id="edge17" class="edge">
<title>MaterialModule&#45;&gt;SharedModule</title>
<path fill="none" stroke="#000000" d="M912,-122.1061C912,-122.1061 912,-140.991 912,-140.991"/>
<polygon fill="#000000" stroke="#000000" points="908.5001,-140.9909 912,-150.991 915.5001,-140.991 908.5001,-140.9909"/>
</g>
<!-- ProtectedModule -->
<g id="node10" class="node">
<title>ProtectedModule</title>
<polygon fill="#8dd3c7" stroke="#000000" points="206.4188,-255 203.4188,-259 182.4188,-259 179.4188,-255 93.5812,-255 93.5812,-219 206.4188,-219 206.4188,-255"/>
<text text-anchor="middle" x="150" y="-232.8" font-family="Times,serif" font-size="14.00" fill="#000000">ProtectedModule</text>
</g>
<!-- MaterialModule&#45;&gt;ProtectedModule -->
<g id="edge9" class="edge">
<title>MaterialModule&#45;&gt;ProtectedModule</title>
<path fill="none" stroke="#000000" d="M857.2728,-122.0449C857.2728,-129.749 857.2728,-137 857.2728,-137 857.2728,-137 200.6891,-137 200.6891,-137 200.6891,-137 200.6891,-208.6585 200.6891,-208.6585"/>
<polygon fill="#000000" stroke="#000000" points="197.1892,-208.6584 200.6891,-218.6585 204.1892,-208.6585 197.1892,-208.6584"/>
</g>
<!-- PublicModule -->
<g id="node13" class="node">
<title>PublicModule</title>
<polygon fill="#8dd3c7" stroke="#000000" points="1659.8288,-255 1656.8288,-259 1635.8288,-259 1632.8288,-255 1564.1712,-255 1564.1712,-219 1659.8288,-219 1659.8288,-255"/>
<text text-anchor="middle" x="1612" y="-232.8" font-family="Times,serif" font-size="14.00" fill="#000000">PublicModule</text>
</g>
<!-- MaterialModule&#45;&gt;PublicModule -->
<g id="edge13" class="edge">
<title>MaterialModule&#45;&gt;PublicModule</title>
<path fill="none" stroke="#000000" d="M961.66,-104C1116.0379,-104 1550.3317,-104 1550.3317,-104 1550.3317,-104 1550.3317,-231 1550.3317,-231 1550.3317,-231 1554.3252,-231 1554.3252,-231"/>
<polygon fill="#000000" stroke="#000000" points="1554.3252,-234.5001 1564.3252,-231 1554.3252,-227.5001 1554.3252,-234.5001"/>
</g>
<!-- SharedModule&#45;&gt;AppModule -->
<g id="edge6" class="edge">
<title>SharedModule&#45;&gt;AppModule</title>
<path fill="none" stroke="#000000" d="M862.4925,-169C805.5321,-169 719.7564,-169 719.7564,-169 719.7564,-169 719.7564,-208.7772 719.7564,-208.7772"/>
<polygon fill="#000000" stroke="#000000" points="716.2565,-208.7772 719.7564,-218.7772 723.2565,-208.7773 716.2565,-208.7772"/>
</g>
<!-- SharedModule&#45;&gt;ProtectedModule -->
<g id="edge10" class="edge">
<title>SharedModule&#45;&gt;ProtectedModule</title>
<path fill="none" stroke="#000000" d="M895.5963,-187.1944C895.5963,-195.2782 895.5963,-203 895.5963,-203 895.5963,-203 203.4491,-203 203.4491,-203 203.4491,-203 203.4491,-208.8056 203.4491,-208.8056"/>
<polygon fill="#000000" stroke="#000000" points="199.9492,-208.8055 203.4491,-218.8056 206.9492,-208.8056 199.9492,-208.8055"/>
</g>
<!-- SharedModule&#45;&gt;PublicModule -->
<g id="edge14" class="edge">
<title>SharedModule&#45;&gt;PublicModule</title>
<path fill="none" stroke="#000000" d="M961.3077,-159C1108.902,-159 1537.0512,-159 1537.0512,-159 1537.0512,-159 1537.0512,-243 1537.0512,-243 1537.0512,-243 1554.1094,-243 1554.1094,-243"/>
<polygon fill="#000000" stroke="#000000" points="1554.1095,-246.5001 1564.1094,-243 1554.1094,-239.5001 1554.1095,-246.5001"/>
</g>
<!-- JokesComponent  -->
<g id="node16" class="node">
<title>JokesComponent </title>
<polygon fill="#fb8072" stroke="#000000" points="1116.9362,-255 1001.0638,-255 1001.0638,-219 1116.9362,-219 1116.9362,-255"/>
<text text-anchor="middle" x="1059" y="-232.8" font-family="Times,serif" font-size="14.00" fill="#000000">JokesComponent </text>
</g>
<!-- SharedModule&#45;&gt;JokesComponent  -->
<g id="edge18" class="edge">
<title>SharedModule&#45;&gt;JokesComponent </title>
<path fill="none" stroke="#000000" stroke-dasharray="5,2" d="M928.4037,-187.2921C928.4037,-209.2057 928.4037,-243 928.4037,-243 928.4037,-243 990.958,-243 990.958,-243"/>
<polygon fill="#000000" stroke="#000000" points="990.9581,-246.5001 1000.958,-243 990.958,-239.5001 990.9581,-246.5001"/>
</g>
<!-- TimerComponent  -->
<g id="node17" class="node">
<title>TimerComponent </title>
<polygon fill="#fb8072" stroke="#000000" points="1253.5414,-255 1134.4586,-255 1134.4586,-219 1253.5414,-219 1253.5414,-255"/>
<text text-anchor="middle" x="1194" y="-232.8" font-family="Times,serif" font-size="14.00" fill="#000000">TimerComponent </text>
</g>
<!-- SharedModule&#45;&gt;TimerComponent  -->
<g id="edge19" class="edge">
<title>SharedModule&#45;&gt;TimerComponent </title>
<path fill="none" stroke="#000000" stroke-dasharray="5,2" d="M961.4433,-180C1042.3197,-180 1194,-180 1194,-180 1194,-180 1194,-208.9648 1194,-208.9648"/>
<polygon fill="#000000" stroke="#000000" points="1190.5001,-208.9648 1194,-218.9648 1197.5001,-208.9649 1190.5001,-208.9648"/>
</g>
<!-- ProtectedLayoutComponent -->
<g id="node9" class="node">
<title>ProtectedLayoutComponent</title>
<polygon fill="#ffffb3" stroke="#000000" points="197.8585,-187 24.1415,-187 24.1415,-151 197.8585,-151 197.8585,-187"/>
<text text-anchor="middle" x="111" y="-164.8" font-family="Times,serif" font-size="14.00" fill="#000000">ProtectedLayoutComponent</text>
</g>
<!-- ProtectedLayoutComponent&#45;&gt;ProtectedModule -->
<g id="edge8" class="edge">
<title>ProtectedLayoutComponent&#45;&gt;ProtectedModule</title>
<path fill="none" stroke="#000000" d="M145.8601,-187.2228C145.8601,-187.2228 145.8601,-208.7269 145.8601,-208.7269"/>
<polygon fill="#000000" stroke="#000000" points="142.3602,-208.7269 145.8601,-218.7269 149.3602,-208.727 142.3602,-208.7269"/>
</g>
<!-- LoginComponent -->
<g id="node11" class="node">
<title>LoginComponent</title>
<polygon fill="#ffffb3" stroke="#000000" points="1678.2758,-187 1563.7242,-187 1563.7242,-151 1678.2758,-151 1678.2758,-187"/>
<text text-anchor="middle" x="1621" y="-164.8" font-family="Times,serif" font-size="14.00" fill="#000000">LoginComponent</text>
</g>
<!-- LoginComponent&#45;&gt;PublicModule -->
<g id="edge11" class="edge">
<title>LoginComponent&#45;&gt;PublicModule</title>
<path fill="none" stroke="#000000" d="M1612,-187.2228C1612,-187.2228 1612,-208.7269 1612,-208.7269"/>
<polygon fill="#000000" stroke="#000000" points="1608.5001,-208.7269 1612,-218.7269 1615.5001,-208.727 1608.5001,-208.7269"/>
</g>
<!-- PublicLayoutComponent -->
<g id="node12" class="node">
<title>PublicLayoutComponent</title>
<polygon fill="#ffffb3" stroke="#000000" points="1853.2688,-187 1696.7312,-187 1696.7312,-151 1853.2688,-151 1853.2688,-187"/>
<text text-anchor="middle" x="1775" y="-164.8" font-family="Times,serif" font-size="14.00" fill="#000000">PublicLayoutComponent</text>
</g>
<!-- PublicLayoutComponent&#45;&gt;PublicModule -->
<g id="edge12" class="edge">
<title>PublicLayoutComponent&#45;&gt;PublicModule</title>
<path fill="none" stroke="#000000" d="M1775,-187.2228C1775,-207.3652 1775,-237 1775,-237 1775,-237 1670.0238,-237 1670.0238,-237"/>
<polygon fill="#000000" stroke="#000000" points="1670.0238,-233.5001 1660.0238,-237 1670.0237,-240.5001 1670.0238,-233.5001"/>
</g>
<!-- JokesComponent -->
<g id="node14" class="node">
<title>JokesComponent</title>
<polygon fill="#ffffb3" stroke="#000000" points="1390.437,-255 1277.563,-255 1277.563,-219 1390.437,-219 1390.437,-255"/>
<text text-anchor="middle" x="1334" y="-232.8" font-family="Times,serif" font-size="14.00" fill="#000000">JokesComponent</text>
</g>
<!-- JokesComponent&#45;&gt;SharedModule -->
<g id="edge15" class="edge">
<title>JokesComponent&#45;&gt;SharedModule</title>
<path fill="none" stroke="#000000" d="M1334,-218.8314C1334,-199.9102 1334,-173 1334,-173 1334,-173 971.2347,-173 971.2347,-173"/>
<polygon fill="#000000" stroke="#000000" points="971.2347,-169.5001 961.2347,-173 971.2346,-176.5001 971.2347,-169.5001"/>
</g>
<!-- TimerComponent -->
<g id="node15" class="node">
<title>TimerComponent</title>
<polygon fill="#ffffb3" stroke="#000000" points="1523.5423,-255 1408.4577,-255 1408.4577,-219 1523.5423,-219 1523.5423,-255"/>
<text text-anchor="middle" x="1466" y="-232.8" font-family="Times,serif" font-size="14.00" fill="#000000">TimerComponent</text>
</g>
<!-- TimerComponent&#45;&gt;SharedModule -->
<g id="edge16" class="edge">
<title>TimerComponent&#45;&gt;SharedModule</title>
<path fill="none" stroke="#000000" d="M1466,-218.7157C1466,-197.6789 1466,-166 1466,-166 1466,-166 971.6514,-166 971.6514,-166"/>
<polygon fill="#000000" stroke="#000000" points="971.6514,-162.5001 961.6514,-166 971.6513,-169.5001 971.6514,-162.5001"/>
</g>
</g>
</svg>
